<?xml version="1.0" encoding="UTF-8"?>
<!DOCTYPE svg PUBLIC "-//W3C//DTD SVG 1.1//EN" "http://www.w3.org/Graphics/SVG/1.1/DTD/svg11.dtd">
<svg xmlns="http://www.w3.org/2000/svg" version="1.1" width="500px" height="236px" style="shape-rendering:geometricPrecision; text-rendering:geometricPrecision; image-rendering:optimizeQuality; fill-rule:evenodd; clip-rule:evenodd" xmlns:xlink="http://www.w3.org/1999/xlink">
<g><path style="opacity:0.98" fill="#df1d32" d="M 174.5,-0.5 C 183.5,-0.5 192.5,-0.5 201.5,-0.5C 240.742,7.4165 262.075,31.4165 265.5,71.5C 265.409,85.2736 261.409,97.7736 253.5,109C 241.486,109.833 229.486,109.666 217.5,108.5C 236.084,91.2686 239.584,71.2686 228,48.5C 208.951,24.938 186.451,21.1047 160.5,37C 142.203,54.1593 138.703,73.9926 150,96.5C 152.803,101.102 156.303,105.102 160.5,108.5C 148.514,109.666 136.514,109.833 124.5,109C 107.334,80.4913 108.834,52.9913 129,26.5C 141.072,12.2168 156.238,3.21678 174.5,-0.5 Z"/></g>
<g><path style="opacity:0.985" fill="#df1d32" d="M -0.5,3.5 C 8.16667,3.5 16.8333,3.5 25.5,3.5C 25.1767,17.4123 25.5101,31.2456 26.5,45C 40.6728,45.8273 54.6728,45.6607 68.5,44.5C 69.4956,31.3438 69.8289,18.0105 69.5,4.5C 77.8333,4.5 86.1667,4.5 94.5,4.5C 94.5,39.1667 94.5,73.8333 94.5,108.5C 86.0161,109.493 77.3494,109.826 68.5,109.5C 68.5,96.5 68.5,83.5 68.5,70.5C 54.1667,70.5 39.8333,70.5 25.5,70.5C 25.5,83.5 25.5,96.5 25.5,109.5C 16.8333,109.5 8.16667,109.5 -0.5,109.5C -0.5,74.1667 -0.5,38.8333 -0.5,3.5 Z"/></g>
<g><path style="opacity:0.527" fill="#e11e30" d="M 94.5,108.5 C 94.5,73.8333 94.5,39.1667 94.5,4.5C 86.1667,4.5 77.8333,4.5 69.5,4.5C 69.8289,18.0105 69.4956,31.3438 68.5,44.5C 68.5,30.8333 68.5,17.1667 68.5,3.5C 77.5,3.5 86.5,3.5 95.5,3.5C 95.8317,38.6706 95.4984,73.6706 94.5,108.5 Z"/></g>
<g><path style="opacity:0.987" fill="#e01e32" d="M 283.5,3.5 C 290.175,3.33375 296.842,3.50042 303.5,4C 315.671,22.3265 328.004,40.4932 340.5,58.5C 352.821,40.5372 365.154,22.5372 377.5,4.5C 384.141,3.20446 390.807,3.20446 397.5,4.5C 398.66,38.7916 398.826,73.1249 398,107.5C 389.434,109.454 380.601,110.12 371.5,109.5C 371.667,92.1635 371.5,74.8301 371,57.5C 363.667,68.8333 356.333,80.1667 349,91.5C 347.915,92.2931 346.748,92.9598 345.5,93.5C 342.167,92.1667 338.833,92.1667 335.5,93.5C 334.252,92.9598 333.085,92.2931 332,91.5C 324.667,80.1667 317.333,68.8333 310,57.5C 309.5,74.8301 309.333,92.1635 309.5,109.5C 300.833,109.5 292.167,109.5 283.5,109.5C 283.5,74.1667 283.5,38.8333 283.5,3.5 Z"/></g>
<g><path style="opacity:0.97" fill="#df1d32" d="M 499.5,3.5 C 499.5,11.1667 499.5,18.8333 499.5,26.5C 482.163,26.3334 464.83,26.5001 447.5,27C 446.524,33.0758 446.19,39.2424 446.5,45.5C 462.167,45.5 477.833,45.5 493.5,45.5C 493.5,53.1667 493.5,60.8333 493.5,68.5C 477.833,68.5 462.167,68.5 446.5,68.5C 446.5,74.5 446.5,80.5 446.5,86.5C 464.167,86.5 481.833,86.5 499.5,86.5C 499.5,94.1667 499.5,101.833 499.5,109.5C 472.833,109.5 446.167,109.5 419.5,109.5C 419.5,74.1667 419.5,38.8333 419.5,3.5C 446.167,3.5 472.833,3.5 499.5,3.5 Z"/></g>
<g><path style="opacity:0.972" fill="#df1d32" d="M 164.5,82.5 C 180.833,82.5 197.167,82.5 213.5,82.5C 211.567,91.2731 206.234,97.1064 197.5,100C 185.007,103.058 174.84,99.5585 167,89.5C 165.589,87.3496 164.755,85.0163 164.5,82.5 Z"/></g>
<g><path style="opacity:0.968" fill="#383838" d="M 1.5,132.5 C 15.8839,132.089 30.2172,132.589 44.5,134C 60.9394,139.699 67.4394,151.199 64,168.5C 61.081,179.752 53.9143,186.585 42.5,189C 35.1742,189.5 27.8409,189.666 20.5,189.5C 20.5,196.167 20.5,202.833 20.5,209.5C 14.1667,209.5 7.83333,209.5 1.5,209.5C 1.5,183.833 1.5,158.167 1.5,132.5 Z M 23.5,149.5 C 29.345,149.151 35.0117,149.984 40.5,152C 47.6768,159.947 46.6768,166.614 37.5,172C 31.8431,172.499 26.1764,172.666 20.5,172.5C 20.5,165.167 20.5,157.833 20.5,150.5C 21.791,150.737 22.791,150.404 23.5,149.5 Z"/></g>
<g><path style="opacity:0.932" fill="#383838" d="M 211.5,132.5 C 218.167,132.5 224.833,132.5 231.5,132.5C 231.5,152.167 231.5,171.833 231.5,191.5C 243.833,191.5 256.167,191.5 268.5,191.5C 268.5,197.5 268.5,203.5 268.5,209.5C 249.5,209.5 230.5,209.5 211.5,209.5C 211.5,183.833 211.5,158.167 211.5,132.5 Z"/></g>
<g><path style="opacity:0.968" fill="#383838" d="M 352.5,136.5 C 358.5,136.5 364.5,136.5 370.5,136.5C 370.5,142.5 370.5,148.5 370.5,154.5C 376.833,154.5 383.167,154.5 389.5,154.5C 389.5,159.833 389.5,165.167 389.5,170.5C 383.5,170.5 377.5,170.5 371.5,170.5C 371.075,177.615 371.575,184.615 373,191.5C 377.955,194.011 382.955,194.011 388,191.5C 389.732,196.315 390.899,201.315 391.5,206.5C 391.023,207.478 390.357,208.311 389.5,209C 376.574,213.714 365.408,211.214 356,201.5C 354.725,199.283 353.725,196.949 353,194.5C 352.5,186.507 352.334,178.507 352.5,170.5C 348.833,170.5 345.167,170.5 341.5,170.5C 341.5,165.167 341.5,159.833 341.5,154.5C 345.167,154.5 348.833,154.5 352.5,154.5C 352.5,148.5 352.5,142.5 352.5,136.5 Z"/></g>
<g><path style="opacity:0.962" fill="#373737" d="M 95.5,152.5 C 100.757,152.876 105.757,154.209 110.5,156.5C 116.613,154.599 122.947,153.932 129.5,154.5C 129.5,172.833 129.5,191.167 129.5,209.5C 122.947,210.068 116.613,209.401 110.5,207.5C 91.3132,215.382 77.8132,209.715 70,190.5C 66.868,169.711 75.368,157.044 95.5,152.5 Z M 95.5,169.5 C 100.734,168.835 105.568,169.835 110,172.5C 112.158,179.126 111.991,185.626 109.5,192C 95.5877,197.968 88.4211,193.468 88,178.5C 89.6141,174.723 92.1141,171.723 95.5,169.5 Z"/></g>
<g><path style="opacity:0.952" fill="#383838" d="M 421.5,152.5 C 443.76,153.089 454.094,164.423 452.5,186.5C 439.483,186.168 426.483,186.501 413.5,187.5C 417.605,195.947 423.939,198.114 432.5,194C 438.825,193.5 445.158,193.334 451.5,193.5C 448.222,204.265 440.889,210.098 429.5,211C 405.291,211.458 394.124,199.625 396,175.5C 399.32,162.01 407.82,154.343 421.5,152.5 Z M 420.5,167.5 C 424.308,167.163 427.974,167.663 431.5,169C 433.451,170.734 434.451,172.901 434.5,175.5C 427.492,175.666 420.492,175.5 413.5,175C 414.46,173.581 415.293,172.081 416,170.5C 417.652,169.601 419.152,168.601 420.5,167.5 Z"/></g>
<g><path style="opacity:0.965" fill="#383838" d="M 294.5,153.5 C 299.511,153.334 304.511,153.501 309.5,154C 311.615,154.557 313.615,155.391 315.5,156.5C 321.951,154.593 328.617,153.927 335.5,154.5C 335.5,172.833 335.5,191.167 335.5,209.5C 328.711,210.101 322.211,209.434 316,207.5C 302.952,213.824 291.285,211.824 281,201.5C 272.335,188.513 272.335,175.513 281,162.5C 284.882,158.429 289.382,155.429 294.5,153.5 Z M 300.5,169.5 C 303.85,169.335 307.183,169.502 310.5,170C 312.329,170.273 313.829,171.107 315,172.5C 316.576,178.388 316.909,184.388 316,190.5C 308.653,196.13 301.653,195.796 295,189.5C 291.226,181.261 293.059,174.595 300.5,169.5 Z"/></g>
<g><path style="opacity:0.942" fill="#383838" d="M 499.5,154.5 C 499.5,160.167 499.5,165.833 499.5,171.5C 492.834,171.914 486.667,173.914 481,177.5C 480.5,188.161 480.333,198.828 480.5,209.5C 474.167,209.5 467.833,209.5 461.5,209.5C 461.5,191.167 461.5,172.833 461.5,154.5C 467.833,154.5 474.167,154.5 480.5,154.5C 480.34,156.199 480.506,157.866 481,159.5C 486.429,154.769 492.596,153.102 499.5,154.5 Z"/></g>
<g><path style="opacity:0.952" fill="#373737" d="M 170.5,235.5 C 164.167,235.5 157.833,235.5 151.5,235.5C 154.538,226.418 157.871,217.418 161.5,208.5C 153.108,190.716 144.441,173.049 135.5,155.5C 142.39,154.189 149.223,154.189 156,155.5C 160.838,165.842 165.671,176.175 170.5,186.5C 175.57,176.192 180.237,165.692 184.5,155C 191.167,154.333 197.833,154.333 204.5,155C 193.298,181.902 181.965,208.735 170.5,235.5 Z"/></g>
</svg>
