<?xml version="1.0" encoding="UTF-8"?>
<svg id="Layer_1" data-name="Layer 1" xmlns="http://www.w3.org/2000/svg" xmlns:xlink="http://www.w3.org/1999/xlink" version="1.1" viewBox="0 0 295.72 107.61">
  <defs>
    <style>
      .cls-1, .cls-2 {
        fill: #656569;
      }

      .cls-1, .cls-2, .cls-3, .cls-4, .cls-5, .cls-6 {
        stroke-width: 0px;
      }

      .cls-2, .cls-6 {
        fill-rule: evenodd;
      }

      .cls-3 {
        fill: url(#linear-gradient);
      }

      .cls-4 {
        fill: #0f5cff;
      }

      .cls-5 {
        fill: url(#linear-gradient-2);
      }

      .cls-6 {
        fill: #e80014;
      }
    </style>
    <linearGradient id="linear-gradient" x1="209.75" y1="26.85" x2="235.71" y2="22.13" gradientTransform="translate(0 110.86) scale(1 -1)" gradientUnits="userSpaceOnUse">
      <stop offset="0" stop-color="#fa0"/>
      <stop offset=".5" stop-color="#fd0"/>
      <stop offset="1" stop-color="#fd0"/>
    </linearGradient>
    <linearGradient id="linear-gradient-2" x1="213.46" y1="26.78" x2="208.43" y2="37.91" gradientTransform="translate(0 110.86) scale(1 -1)" gradientUnits="userSpaceOnUse">
      <stop offset="0" stop-color="#fa0"/>
      <stop offset=".2" stop-color="#ffc400"/>
      <stop offset=".45" stop-color="#fd0"/>
      <stop offset="1" stop-color="#fd0"/>
    </linearGradient>
  </defs>
  <path class="cls-1" d="M234.88,79.87c-6.84,2.57-14.07,4.06-21.4,4.42.37,5.36,3.99,11.23,6.95,11.23,7.51,0,13.55-12.14,14.82-14.74.49-.97.11-1.11-.38-.9Z"/>
  <path class="cls-1" d="M217.58,82.02c-3.58-1.25-2.87-7.23-2.94-7.64-.36-1.31-5.79,3.32-5.79,6.46,0,1.31.88,1.73,2.33,1.77,2.14-.01,4.28-.2,6.39-.56.05,0,.04-.03.01-.03Z"/>
  <path class="cls-3" d="M233.58,79.24c-6.87,2.58-14.12,4.07-21.48,4.43.37,5.38,4,11.27,6.98,11.27,7.54,0,13.6-12.19,14.88-14.79.49-.97.11-1.12-.38-.91Z"/>
  <path class="cls-5" d="M216.21,81.4c-3.59-1.25-2.87-7.26-2.95-7.66-.36-1.32-5.81,3.33-5.81,6.49,0,1.32.88,1.74,2.34,1.78,2.15-.01,4.29-.2,6.41-.56.05,0,.04-.03.01-.03Z"/>
  <path class="cls-2" d="M192.75,103.89h-1.92c-.49.02-.97-.15-1.34-.47-.17-.17-.31-.37-.4-.6-.09-.22-.13-.46-.12-.7v-7.52c0-.84-.26-1.46-.8-1.84-.51-.37-1.13-.57-1.77-.57-.63,0-1.25.19-1.75.57-.5.38-.75,1-.75,1.84v9.29h-3.85v-8.57c0-2.38.66-3.97,1.92-4.77,1.28-.81,2.77-1.27,4.3-1.31,1.56-.01,3.09.4,4.42,1.18,1.34.84,2.04,2.45,2.04,4.9v8.57Z"/>
  <path class="cls-2" d="M172.31,97.22c.76-.15,1.5-.37,2.21-.67v1.31c0,.99-.33,1.76-.92,2.33-.59.57-1.42.85-2.47.85-.65,0-1.14-.13-1.48-.43-.17-.17-.3-.36-.39-.58-.09-.22-.12-.45-.11-.69.01-.41.15-.82.39-1.15.28-.28.79-.51,1.47-.69l1.29-.27ZM174.99,102.91c-1.33.85-2.81.99-4.41.99-1.26.02-2.51-.33-3.56-1.01-1.02-.71-1.52-1.85-1.52-3.44,0-1.48.45-2.54,1.39-3.17,1.22-.83,3.41-1.19,4.56-1.39.23-.04.42-.07.55-.1,1.65-.22,2.48-.69,2.48-1.38,0-.54-.3-.88-.86-1.03-.53-.16-1.07-.24-1.62-.24-.48-.01-.95.06-1.4.22-.2.05-.39.15-.55.29-.16.13-.29.3-.38.49h-3.76c.14-1.07.7-2.05,1.57-2.72,1.03-.79,2.47-1.21,4.36-1.21,2.11,0,3.69.35,4.74,1.02.51.31.93.74,1.22,1.26.29.52.43,1.1.41,1.69v4.84s0,.07,0,.1v5.83h-1.68c-.22,0-.45-.03-.65-.12-.21-.09-.39-.22-.54-.38-.14-.16-.25-.35-.33-.54Z"/>
  <path class="cls-2" d="M198.33,89.91v4.91l4.51-5.61h4.45l-5.03,6.05,5.09,8.63h-4.45l-2.6-4.72c-.54-.96-1-1.37-1.39-1.21-.39.16-.58.36-.58.63v5.3h-3.72v-18.1h1.92c.24,0,.48.04.7.13.22.09.42.23.58.41.33.32.51.75.52,1.2v2.38Z"/>
  <path class="cls-6" d="M114.61,103.99v-16.2c0-.5.21-.98.57-1.33.17-.18.38-.33.62-.42.23-.1.49-.14.74-.14h1.85v6.73h7.53v-6.73h3.81v18.09h-3.81v-8.05h-7.53v8.05h-3.77Z"/>
  <path class="cls-6" d="M135.31,100.74h2.43c1.74,0,3.04-.45,3.86-1.37.79-.85,1.2-2.32,1.2-4.42s-.37-3.51-1.13-4.49c-.72-.94-1.86-1.43-3.44-1.43h-2.91v11.71ZM131.59,103.99v-16.2c0-.25.04-.49.14-.72.1-.23.24-.43.42-.61.18-.18.4-.33.64-.42s.5-.15.75-.14h4.69c2.82,0,4.96.76,6.36,2.21,1.41,1.56,2.1,3.83,2.1,6.85.03,1.49-.23,2.96-.76,4.36-.58,1.34-1.33,2.36-2.27,3.07-.74.59-1.6,1.02-2.52,1.26-.88.26-2.16.36-3.93.36h-5.61Z"/>
  <path class="cls-2" d="M152.18,100.74h4.5c.99,0,1.76-.17,2.31-.58.48-.36.74-.94.74-1.8s-.25-1.44-.74-1.83c-.48-.35-1.25-.52-2.36-.52h-4.45v4.73ZM152.18,92.9h4.33c.94,0,1.6-.16,2.05-.47.45-.32.64-.8.64-1.47s-.22-1.18-.64-1.47c-.37-.27-1.08-.44-2.09-.44h-4.29v3.86ZM148.54,103.99v-16.2c0-.25.04-.49.14-.72.1-.23.24-.43.42-.61.17-.18.38-.32.61-.42.23-.1.48-.15.73-.14h6.77c1.88,0,3.34.39,4.33,1.18.99.79,1.49,1.97,1.49,3.4.03.81-.17,1.61-.59,2.31-.4.62-.97,1.11-1.64,1.42.85.34,1.59.92,2.13,1.65.46.68.7,1.55.7,2.65,0,1.74-.57,3.1-1.71,4.09-1.18.94-2.84,1.42-4.98,1.42l-8.41-.02Z"/>
  <path class="cls-1" d="M97.13,103.95c-.39,0-.77-.06-1.13-.17-.37-.12-.7-.28-1.01-.48-.3-.2-.55-.42-.75-.67-.2-.26-.33-.51-.4-.77l.48-.22-.05,2.08h-1.96v-10.95c0-.72.58-1.31,1.31-1.31h.72v5.55l-.35-.15c.05-.27.18-.52.37-.75.19-.24.43-.46.71-.65.29-.2.6-.36.95-.47.34-.12.7-.18,1.06-.18.78,0,1.46.2,2.06.6.61.39,1.09.93,1.43,1.61.35.68.53,1.46.53,2.34s-.17,1.66-.52,2.34c-.34.69-.82,1.23-1.43,1.63-.6.39-1.27.58-2.03.58ZM96.71,102.16c.47,0,.88-.12,1.25-.35.37-.24.65-.57.86-.98.21-.42.32-.9.32-1.43s-.11-1.02-.32-1.43c-.2-.42-.48-.75-.85-.98-.37-.23-.79-.35-1.26-.35s-.91.12-1.28.35c-.37.23-.65.56-.86.98-.21.41-.32.89-.32,1.43s.11,1.01.32,1.43c.21.41.5.74.86.98.37.23.79.35,1.28.35Z"/>
  <path class="cls-1" d="M103.74,107.61l1.85-4.29.02,1.38-4.32-9.68h2.34l2.43,5.77c.08.14.16.34.23.58.08.23.14.46.2.68l-.42.15c.08-.21.16-.44.23-.68.09-.24.18-.49.27-.73l2.06-5.77h2.36l-3.64,8.76-1.48,3.82h-2.13Z"/>
  <path class="cls-4" d="M295.48,61.39c-.4-.75-.97-1.36-1.71-1.82-.74-.45-1.5-.68-2.28-.68s-1.38.39-1.79,1.17c-.8,1.46-1.84,2.89-3.12,4.29-1.28,1.41-2.73,2.67-4.36,3.81-1.62,1.13-3.37,2.05-5.22,2.77-1.85.71-3.7,1.08-5.53,1.12-1.84.09-3.27-.22-4.28-.93-1.01-.71-1.71-1.65-2.11-2.82-.39-1.17-.55-2.5-.48-3.99.08-1.49.29-2.99.64-4.52,2.72.92,5.33,1.07,7.8.45,2.48-.62,4.73-1.72,6.77-3.3,2.02-1.57,3.75-3.49,5.18-5.74,1.43-2.25,2.51-4.58,3.24-7,.65-2.27.82-4.3.51-6.07-.31-1.78-.98-3.26-1.99-4.47-1.01-1.2-2.3-2.09-3.87-2.66-1.57-.57-3.26-.78-5.07-.63-2.18.16-4.16.82-5.95,1.99-1.79,1.17-3.42,2.64-4.87,4.42-1.46,1.78-2.76,3.77-3.91,5.96-1.15,2.2-2.15,4.39-2.98,6.6-.73,1.92-1.35,3.78-1.88,5.6-.37.55-.76,1.1-1.19,1.65-1.18,1.5-2.54,2.87-4.07,4.11-1.54,1.25-3.21,2.29-5.01,3.13-1.8.84-3.61,1.35-5.43,1.51-1.83.22-3.28.01-4.34-.62-1.06-.63-1.83-1.52-2.3-2.66-.48-1.14-.73-2.45-.76-3.95-.03-1.49.08-3.01.31-4.55,2.78.73,5.39.69,7.82-.11,2.43-.8,4.6-2.06,6.51-3.77,1.91-1.72,3.49-3.75,4.76-6.1,1.26-2.35,2.17-4.75,2.73-7.21.49-2.32.51-4.35.07-6.09-.44-1.75-1.21-3.19-2.3-4.31s-2.44-1.92-4.05-2.37c-1.61-.46-3.31-.55-5.1-.27-2.16.31-4.09,1.11-5.79,2.41-1.7,1.29-3.21,2.88-4.54,4.76-1.32,1.88-2.48,3.95-3.47,6.23-.99,2.27-1.83,4.54-2.5,6.79-.68,2.26-1.23,4.43-1.65,6.53-.1.52-.2,1.01-.28,1.49-.15.38-.3.74-.46,1.1-.69,1.45-1.46,2.65-2.3,3.58-.85.93-1.69,1.6-2.54,2-.85.41-1.58.42-2.2.06-1.15-.66-1.84-2.11-2.07-4.32-.23-2.22-.16-4.9.21-8.06.37-3.15.97-6.61,1.83-10.37.85-3.76,1.77-7.52,2.75-11.27.98-3.75,1.94-7.32,2.88-10.69.94-3.38,1.7-6.25,2.27-8.63.31-1.24.14-2.26-.51-3.08-.66-.82-1.47-1.38-2.43-1.67-.96-.29-1.91-.26-2.85.12-.95.37-1.57,1.14-1.89,2.33-.46,1.73-1.06,3.76-1.78,6.09-.72,2.33-1.46,4.68-2.2,7.04-.75,2.36-1.44,4.57-2.09,6.63-.64,2.07-1.17,3.63-1.57,4.71-2.14-1.51-4.21-2.46-6.22-2.85-2.01-.39-3.92-.39-5.73,0-2.27.5-4.35,1.51-6.23,3.02-1.89,1.52-3.51,3.35-4.87,5.51-1.06,1.67-1.91,3.45-2.58,5.36-.22.37-.4.82-.53,1.38-.03.23-.07.48-.11.72-.21.78-.38,1.56-.51,2.33-.17.63-.36,1.27-.59,1.97-.65,1.93-1.46,3.77-2.44,5.51-.98,1.74-2.12,3.2-3.42,4.37-1.3,1.17-2.7,1.73-4.22,1.68-1.26-.06-2.16-.68-2.7-1.84-.54-1.17-.85-2.65-.93-4.43-.08-1.79.04-3.81.35-6.05.31-2.25.7-4.49,1.16-6.72.46-2.23.94-4.37,1.43-6.43.49-2.05.89-3.79,1.21-5.21.37-1.27.21-2.33-.48-3.2-.68-.86-1.51-1.47-2.51-1.81-.99-.35-1.99-.42-2.99-.21-1,.21-1.64.77-1.91,1.68-3.05-2.48-5.94-3.78-8.69-3.89-2.75-.12-5.26.56-7.53,2.04-2.27,1.48-4.26,3.58-5.97,6.3-1.71,2.72-3.07,5.67-4.08,8.85-.77,2.4-1.29,4.83-1.58,7.29-.05.15-.09.3-.13.45-.77,4.5-1.64,7.8-2.61,9.89-.97,2.09-2.27,3.14-3.9,3.14-.74-.19-1.31-.81-1.71-1.87-.39-1.06-.68-2.39-.86-3.99-.17-1.6-.27-3.43-.29-5.49-.02-2.06.03-4.21.13-6.44.1-2.23.24-4.48.39-6.75.15-2.27.27-4.4.37-6.41-.33-1.73-1.04-2.98-2.16-3.75-1.11-.77-2.53-.92-4.24-.44-1.11.68-1.9,1.47-2.34,2.36-.45.89-.75,1.98-.9,3.28-.1.68-.19,2.02-.28,4.02-.09,2-.26,4.31-.48,6.92-.23,2.61-.55,5.35-.96,8.22-.42,2.87-.97,5.49-1.67,7.87-.7,2.38-1.56,4.33-2.59,5.87-1.03,1.54-2.29,2.3-3.77,2.27-.82-.02-1.46-.77-1.91-2.22-.46-1.46-.78-3.29-.98-5.5-.2-2.21-.27-4.66-.24-7.34.04-2.68.1-5.23.21-7.64.1-2.41.21-4.54.33-6.4.12-1.85.2-3.09.26-3.71-.23-1.44-.73-2.55-1.51-3.32-.78-.77-1.65-1.19-2.6-1.27-.96-.08-1.88.19-2.78.82-.89.63-1.6,1.61-2.09,2.96-.04,1.38-.12,2.99-.24,4.82-.12,1.83-.22,3.7-.3,5.63-.08,1.93-.14,3.81-.18,5.65-.04,1.84-.03,3.45.03,4.81.03.53.07,1.12.12,1.78-.03.37-.06.75-.1,1.14-.13,1.26-.33,2.55-.61,3.85-.28,1.3-.62,2.46-1.03,3.48-.41,1.03-.92,1.85-1.51,2.45-.6.61-1.31.84-2.13.67-.82-.16-1.5-.94-2.04-2.32-.54-1.38-.99-3.16-1.36-5.35-.36-2.18-.7-4.64-1.02-7.39-.31-2.74-.68-5.55-1.1-8.41-.42-2.86-.92-5.67-1.5-8.41-.59-2.74-1.34-5.2-2.27-7.38-.93-2.18-2.07-3.96-3.43-5.35-1.35-1.39-3.01-2.16-4.96-2.32-1.96-.16-3.7.26-5.23,1.23-1.54.98-2.87,2.25-3.98,3.82-1.11,1.57-2.02,3.31-2.7,5.23-.68,1.91-1.15,3.73-1.4,5.45-.53-1.09-1.15-2.32-1.84-3.7-.7-1.38-1.51-2.63-2.45-3.78-.93-1.15-2.01-2.09-3.21-2.84-1.21-.74-2.58-1.06-4.1-.95-2.21.16-4.15.99-5.84,2.48-1.68,1.5-3.14,3.31-4.36,5.43-1.22,2.13-2.23,4.43-3.02,6.9-.79,2.47-1.41,4.74-1.84,6.8l-2.09-10.12c-.31-1.5-.89-2.64-1.74-3.42-.85-.78-1.76-1.22-2.74-1.32-.99-.1-1.94.12-2.86.67-.92.55-1.6,1.37-2.04,2.46-.44,1.09-.99,2.33-1.67,3.73-.67,1.4-1.43,2.76-2.29,4.1-.86,1.33-1.8,2.55-2.83,3.66-1.03,1.1-2.11,1.89-3.25,2.36-1.14.48-2.32.57-3.54.28s-2.46-1.15-3.73-2.6c-.92-1.1-1.92-1.76-3.01-1.99-1.09-.23-2.05-.13-2.89.28-.84.41-1.5,1.12-1.96,2.14-.46,1.02-.54,2.22-.21,3.61.89,1.87,2.11,3.43,3.66,4.69,1.54,1.26,3.25,2.19,5.1,2.79,1.86.6,3.79.83,5.82.68,2.02-.14,3.95-.7,5.78-1.69,1.61-.85,3.06-1.98,4.35-3.4,1.28-1.42,2.45-2.93,3.5-4.53.88,3.22,1.69,6.9,2.44,11.04.75,4.14,1.51,8.34,2.29,12.6.77,4.26,1.55,8.42,2.35,12.46.79,4.04,1.67,7.55,2.61,10.53.13.76.44,1.28.93,1.54.48.27,1.04.39,1.68.36.64-.03,1.29-.21,1.98-.53.68-.32,1.29-.72,1.8-1.19s.91-1,1.17-1.59c.26-.59.28-1.16.06-1.72-.51-2.83-.95-6.18-1.33-10.06-.38-3.88-.62-7.89-.73-12.04-.1-4.15-.06-8.27.12-12.37.19-4.1.61-7.79,1.27-11.08.66-3.28,1.59-6,2.78-8.14,1.19-2.14,2.72-3.33,4.57-3.57.66-.1,1.37.46,2.12,1.69.75,1.22,1.49,2.88,2.22,4.97.73,2.09,1.44,4.52,2.11,7.28.67,2.76,1.29,5.63,1.86,8.6s1.06,5.92,1.47,8.87c.42,2.94.71,5.66.86,8.13.09,1.21.6,2.06,1.53,2.56.93.51,1.93.68,3.01.53,1.08-.15,2.05-.6,2.92-1.35.87-.74,1.28-1.73,1.24-2.96-.06-2.25-.17-4.86-.31-7.86-.14-3-.27-6.08-.37-9.26-.1-3.17-.13-6.3-.09-9.37.05-3.07.23-5.85.56-8.33.33-2.48.84-4.52,1.54-6.12.7-1.6,1.66-2.5,2.88-2.7.81-.15,1.46.43,1.98,1.74.51,1.31.96,3.09,1.35,5.31.38,2.23.75,4.79,1.09,7.68.35,2.89.75,5.83,1.21,8.81.46,2.98,1.02,5.89,1.66,8.71.64,2.83,1.46,5.33,2.45,7.51.99,2.18,2.19,3.88,3.6,5.08,1.42,1.2,3.13,1.68,5.14,1.44,2.79-.33,5.1-1.29,6.94-2.87.76-.66,1.45-1.39,2.08-2.18.19.34.39.67.61.99.86,1.29,1.95,2.29,3.26,3,1.31.71,2.87.97,4.68.79,1.86-.19,3.44-.58,4.75-1.17,1.31-.59,2.46-1.37,3.45-2.34.99-.97,1.86-2.08,2.61-3.31.75-1.24,1.47-2.58,2.16-4.01,1.14,1.76,2.47,3.05,3.97,3.88,1.51.84,3.02,1.23,4.54,1.2,1.53-.03,3.01-.49,4.45-1.35,1.44-.86,2.67-2.14,3.68-3.83.37-.57.72-1.18,1.05-1.82.57.84,1.22,1.6,1.97,2.26,1.83,1.66,4.29,2.44,7.36,2.35,1.36-.04,2.66-.35,3.9-.95,1.24-.59,2.38-1.28,3.41-2.07,1.03-.79,1.94-1.61,2.72-2.46.78-.85,1.39-1.57,1.83-2.14.41,1.8,1.03,3.32,1.87,4.55.84,1.24,1.79,2.24,2.85,3.01,1.06.77,2.15,1.33,3.3,1.68,1.14.34,2.25.5,3.3.47,2.37-.07,4.55-.94,6.57-2.62,2.01-1.67,3.81-3.7,5.37-6.09.13-.2.26-.41.39-.62.73,1.34,1.61,2.48,2.63,3.41,1.33,1.21,2.83,2.07,4.5,2.58,1.67.51,3.4.64,5.19.41,1.79-.24,3.53-.84,5.21-1.79,1.68-.96,3.25-2.28,4.73-3.96.16.97.48,2.05.95,3.24.47,1.18,1.09,2.3,1.85,3.35.76,1.06,1.67,1.97,2.7,2.75,1.04.78,2.21,1.23,3.52,1.35,2.15.2,4.17-.27,6.05-1.42.86-.52,1.68-1.12,2.44-1.78.02.07.03.14.05.21.66,2.38,1.79,4.33,3.39,5.86,1.61,1.53,3.64,2.59,6.09,3.18,2.45.59,5.23.64,8.35.15,2.33-.38,4.4-1.02,6.23-1.9,1.71-.82,3.31-1.9,4.82-3.23.05.53.12,1.05.22,1.55.48,2.42,1.47,4.44,2.97,6.09,1.49,1.64,3.44,2.84,5.84,3.6,2.4.76,5.17,1.01,8.31.74,2.35-.21,4.47-.7,6.35-1.45,1.89-.75,3.69-1.8,5.4-3.15,1.71-1.35,3.37-2.98,5-4.9,1.62-1.91,3.34-4.14,5.16-6.68.4-.73.4-1.47,0-2.23M269.2,49.87c.44-1.08.97-2.2,1.59-3.37.62-1.17,1.3-2.27,2.05-3.32.74-1.06,1.52-1.93,2.33-2.63.81-.7,1.59-1.14,2.34-1.33.75-.19,1.41.02,1.98.64.61.63.82,1.68.62,3.13-.2,1.46-.77,2.92-1.7,4.39-.93,1.47-2.25,2.74-3.93,3.81-1.69,1.07-3.71,1.53-6.06,1.38.08-.71.34-1.6.78-2.68M238.68,43.41c.36-1.11.81-2.27,1.34-3.48.53-1.21,1.14-2.36,1.8-3.46.67-1.1,1.38-2.03,2.13-2.79.75-.75,1.5-1.25,2.24-1.5.74-.24,1.41-.08,2.02.49.66.59.94,1.61.85,3.08-.1,1.47-.56,2.96-1.38,4.5-.82,1.54-2.04,2.9-3.65,4.08s-3.59,1.79-5.95,1.8c.03-.71.23-1.62.59-2.73M163.6,32.35c-.21,1.49-.5,3.14-.87,4.94-.38,1.8-.86,3.67-1.46,5.6-.6,1.93-1.35,3.68-2.26,5.24-.91,1.57-1.97,2.82-3.17,3.76-1.21.94-2.62,1.36-4.23,1.26-.81-.08-1.44-.61-1.9-1.61-.46-.99-.73-2.27-.79-3.83-.08-1.56.02-3.27.26-5.15.24-1.87.66-3.71,1.23-5.51.57-1.8,1.29-3.48,2.15-5.01.86-1.54,1.87-2.74,3.03-3.6,1.16-.86,2.44-1.29,3.85-1.29,1.41.01,2.94.67,4.6,1.98-.08.66-.23,1.73-.44,3.23ZM210.09,38.71c-.21.86-.45,1.76-.74,2.7-.29.93-.6,1.87-.94,2.8-.34.93-.67,1.79-1,2.56-.85,2.05-1.94,3.6-3.27,4.66-1.34,1.06-2.67,1.66-4,1.79-1.63.15-3.06-.42-4.28-1.72-1.22-1.3-1.75-3.38-1.58-6.25.08-1.41.36-2.77.84-4.1.48-1.32,1.09-2.52,1.84-3.59.75-1.07,1.61-1.97,2.56-2.72.95-.75,1.97-1.25,3.06-1.5,1.29-.28,2.61-.2,3.96.26,1.35.45,2.66,1.42,3.94,2.91-.05.6-.19,1.33-.39,2.2"/>
</svg>